<svg width="300" height="207" viewBox="0 0 300 207" fill="none" xmlns="http://www.w3.org/2000/svg">
<g clip-path="url(#clip0_130_783)">
<path d="M300 169.576C300 195.127 287.934 205.6 258.502 205.6H161.845C132.409 205.6 120.347 195.127 120.347 169.576C120.347 144.025 132.413 133.552 161.845 133.552H258.502C287.938 133.552 300 144.025 300 169.576Z" fill="url(#paint0_linear_130_783)"/>
<path d="M61.2825 178.617H45.9499C45.536 178.617 45.1744 178.91 45.1021 179.315C44.3909 183.214 43.0569 186.322 41.0961 188.637C38.8862 191.248 35.7642 192.552 31.7221 192.552C28.6122 192.552 25.9362 191.601 23.6982 189.704C21.4601 187.807 19.7324 185.127 18.519 181.67C17.3055 178.212 16.6988 174.109 16.6988 169.363C16.6988 164.754 17.2734 160.683 18.4266 157.157C19.5757 153.632 21.2874 150.888 23.5575 148.918C25.8277 146.953 28.58 145.97 31.8145 145.97C35.483 145.97 38.4683 147.19 40.7707 149.632C42.7877 151.77 44.1819 154.638 44.9574 158.236C45.0418 158.629 45.3954 158.91 45.8012 158.91H61.0736C61.616 158.91 62.0219 158.417 61.9254 157.883C60.4066 149.592 57.2927 143.178 52.5715 138.65C47.6254 133.905 40.7064 131.53 31.8145 131.53C25.3455 131.53 19.7163 133.09 14.9269 136.207C10.1374 139.328 6.45291 143.716 3.87335 149.38C1.2938 155.043 0 161.702 0 169.363C0 177.025 1.35407 184.06 4.05818 189.652C6.7623 195.247 10.495 199.535 15.2523 202.52C20.0096 205.504 25.4339 206.996 31.5333 206.996C37.4397 206.996 42.5104 205.877 46.7414 203.639C50.9683 201.4 54.3917 198.163 57.0034 193.928C59.4544 189.957 61.162 185.191 62.1344 179.636C62.2268 179.102 61.825 178.617 61.2825 178.617Z" fill="black"/>
<path d="M119.347 133.159H103.99C103.681 133.159 103.395 133.323 103.243 133.588L91.3654 153.952C91.2529 154.145 90.9796 154.145 90.8671 153.952L78.9899 133.588C78.8332 133.323 78.552 133.159 78.2426 133.159H62.8858C62.2188 133.159 61.8009 133.881 62.1384 134.458L82.357 169.119C82.4092 169.207 82.4092 169.319 82.357 169.407L62.1384 204.068C61.8009 204.645 62.2188 205.367 62.8858 205.367H78.2426C78.552 205.367 78.8372 205.203 78.9899 204.938L90.8671 184.574C90.9796 184.381 91.2529 184.381 91.3654 184.574L103.243 204.938C103.399 205.203 103.681 205.367 103.99 205.367H119.347C120.014 205.367 120.432 204.645 120.094 204.068L99.8755 169.407C99.8233 169.319 99.8233 169.207 99.8755 169.119L120.094 134.458C120.432 133.881 120.014 133.159 119.347 133.159Z" fill="black"/>
<path d="M158.237 192.576C153.644 192.576 149.626 191.645 146.183 189.784C142.74 187.923 140.072 185.26 138.175 181.79C136.283 178.324 135.334 174.213 135.334 169.456C135.334 164.698 136.295 160.39 138.219 156.865C140.14 153.343 142.824 150.635 146.267 148.742C149.711 146.853 153.673 145.906 158.149 145.906C162.625 145.906 166.727 146.881 170.114 148.826C173.501 150.776 176.141 153.495 178.034 156.989C179.926 160.483 180.874 164.666 180.874 169.536C180.874 174.405 179.942 178.404 178.078 181.87C176.213 185.336 173.602 187.987 170.243 189.82C166.884 191.653 162.882 192.572 158.233 192.572L158.237 192.576ZM158.064 181.577C160.704 181.577 162.826 181.004 164.437 179.856C166.044 178.709 167.205 177.205 167.924 175.344C168.64 173.483 169.001 171.521 169.001 169.456C169.001 167.39 168.644 165.416 167.924 163.527C167.205 161.638 166.06 160.077 164.481 158.842C162.902 157.611 160.764 156.993 158.068 156.993C155.372 156.993 153.391 157.611 151.784 158.842C150.177 160.073 149.016 161.634 148.296 163.527C147.577 165.416 147.22 167.394 147.22 169.456C147.22 171.517 147.577 173.551 148.296 175.384C149.012 177.217 150.177 178.709 151.784 179.852C153.391 181 155.485 181.573 158.068 181.573L158.064 181.577Z" fill="white"/>
<path d="M189.485 191.974V146.684H200.763L201.366 151.927C202.628 150.378 204.078 149.163 205.714 148.273C207.349 147.386 209.012 146.768 210.708 146.423C212.4 146.078 213.939 145.906 215.313 145.906C219.672 145.906 223.075 146.853 225.514 148.742C227.953 150.631 229.701 153.166 230.766 156.347C231.827 159.528 232.357 163.066 232.357 166.961V191.97H220.303V168.509C220.303 167.133 220.186 165.757 219.957 164.385C219.728 163.01 219.311 161.75 218.708 160.603C218.105 159.456 217.257 158.541 216.169 157.851C215.08 157.165 213.641 156.82 211.865 156.82C209.571 156.82 207.646 157.394 206.095 158.541C204.544 159.688 203.395 161.237 202.652 163.182C201.905 165.132 201.531 167.277 201.531 169.628V191.974H189.477H189.485Z" fill="white"/>
<path d="M263.432 192.62C258.667 192.62 254.621 191.673 251.294 189.784C247.963 187.895 245.412 185.215 243.632 181.75C241.852 178.284 240.964 174.229 240.964 169.588C240.964 164.947 241.88 160.779 243.72 157.254C245.556 153.732 248.152 150.968 251.511 148.959C254.87 146.953 258.844 145.95 263.432 145.95C266.876 145.95 269.901 146.524 272.513 147.671C275.125 148.818 277.335 150.423 279.143 152.484C280.951 154.546 282.297 156.941 283.189 159.66C284.077 162.384 284.495 165.32 284.438 168.469C284.438 169.271 284.41 170.045 284.354 170.787C284.298 171.533 284.181 172.279 284.008 173.021H252.929C253.102 174.742 253.588 176.319 254.392 177.747C255.195 179.179 256.328 180.31 257.791 181.14C259.254 181.97 261.078 182.388 263.26 182.388C264.694 182.388 266.016 182.231 267.221 181.914C268.427 181.601 269.459 181.096 270.319 180.41C271.179 179.724 271.782 178.922 272.127 178.003H284.008C283.261 181.385 281.871 184.164 279.834 186.339C277.797 188.517 275.342 190.105 272.473 191.108C269.604 192.111 266.59 192.612 263.432 192.612V192.62ZM253.186 164.602H272.899C272.842 163.054 272.453 161.61 271.737 160.262C271.018 158.918 269.958 157.827 268.551 156.997C267.145 156.167 265.353 155.749 263.171 155.749C260.989 155.749 259.169 156.179 257.703 157.037C256.24 157.895 255.147 158.998 254.432 160.346C253.713 161.694 253.299 163.11 253.182 164.602H253.186Z" fill="white"/>
<path d="M110.957 0.0240691C103.351 -0.45727 97.0789 5.80415 97.5611 13.3973C97.9589 19.6587 103.05 24.7408 109.322 25.138C116.928 25.6153 123.2 19.3579 122.718 11.7647C122.32 5.50332 117.229 0.421174 110.957 0.0240691Z" fill="#3694FD"/>
<path d="M83.4097 7.90601H63.1308C62.4598 7.90601 61.9214 8.44751 61.9214 9.11337V68.4826C61.9214 68.8957 61.375 69.0401 61.1701 68.6831L26.0688 8.50768C25.8518 8.13464 25.454 7.91002 25.0241 7.91002H2.78449C2.1175 7.91002 1.57507 8.45152 1.57507 9.11738V107.684C1.57507 108.35 2.1175 108.891 2.78449 108.891H23.0633C23.7303 108.891 24.2728 108.35 24.2728 107.684V48.5511C24.2728 48.142 24.8152 47.9936 25.0241 48.3505L60.1214 108.293C60.3383 108.666 60.7361 108.891 61.166 108.891H83.4097C84.0807 108.891 84.6191 108.35 84.6191 107.684V9.11337C84.6191 8.4435 84.0767 7.90601 83.4097 7.90601Z" fill="black"/>
<path d="M119.122 31.7724C116.289 32.3821 113.272 32.711 110.137 32.711C107.003 32.711 103.99 32.3821 101.153 31.7724C100.402 31.612 99.6907 32.1816 99.6907 32.9517V107.684C99.6907 108.35 100.233 108.891 100.9 108.891H119.371C120.038 108.891 120.58 108.35 120.58 107.684V32.9517C120.58 32.1816 119.869 31.612 119.118 31.7724" fill="black"/>
<path d="M298.634 90.3996H256.413C256.192 90.3996 256.011 90.219 256.011 89.9984V68.0494C256.011 67.8287 256.192 67.6482 256.413 67.6482H290.871C291.538 67.6482 292.081 67.1067 292.081 66.4409V50.3682C292.081 49.7023 291.538 49.1608 290.871 49.1608H256.413C256.192 49.1608 256.011 48.9803 256.011 48.7597V26.8106C256.011 26.59 256.192 26.4095 256.413 26.4095H298.634C299.301 26.4095 299.843 25.868 299.843 25.2021V9.11337C299.843 8.4435 299.301 7.90601 298.634 7.90601H234.519C233.848 7.90601 233.309 8.44751 233.309 9.11337V107.68C233.309 108.345 233.852 108.887 234.519 108.887H298.634C299.301 108.887 299.843 108.345 299.843 107.68V91.6069C299.843 90.9411 299.301 90.3996 298.634 90.3996Z" fill="black"/>
<path d="M219.202 71.4749H197.762C197.183 71.4749 196.677 71.8841 196.573 72.4536C195.58 77.9048 193.712 82.2489 190.972 85.4899C187.882 89.1401 183.514 90.9651 177.861 90.9651C173.509 90.9651 169.773 89.6375 166.643 86.9821C163.513 84.3307 161.098 80.5803 159.402 75.7468C157.707 70.9093 156.859 65.1734 156.859 58.5349C156.859 51.8964 157.662 46.4011 159.274 41.4674C160.881 36.5377 163.271 32.699 166.45 29.9474C169.624 27.1957 173.473 25.8239 177.997 25.8239C183.128 25.8239 187.303 27.5326 190.522 30.9461C193.338 33.9385 195.291 37.9496 196.376 42.9756C196.496 43.5251 196.991 43.9182 197.557 43.9182H218.917C219.676 43.9182 220.243 43.2283 220.106 42.4822C217.981 30.886 213.625 21.917 207.027 15.5834C200.113 8.94893 190.437 5.62769 178.001 5.62769C168.953 5.62769 161.082 7.80976 154.388 12.1699C147.69 16.53 142.535 22.6711 138.926 30.5891C135.318 38.5072 133.514 47.8251 133.514 58.5349C133.514 69.2447 135.407 79.0881 139.188 86.9099C142.973 94.7316 148.188 100.732 154.842 104.9C161.496 109.072 169.081 111.157 177.608 111.157C186.134 111.157 192.956 109.593 198.875 106.464C204.789 103.336 209.571 98.807 213.227 92.8785C216.651 87.323 219.045 80.6605 220.403 72.8909C220.536 72.1488 219.969 71.4629 219.214 71.4629" fill="black"/>
</g>
<defs>
<linearGradient id="paint0_linear_130_783" x1="120.343" y1="169.576" x2="300" y2="169.576" gradientUnits="userSpaceOnUse">
<stop offset="0.45" stop-color="#3694FC"/>
<stop offset="0.55" stop-color="#2D8AFB"/>
<stop offset="0.73" stop-color="#1771FB"/>
<stop offset="0.86" stop-color="#025AFB"/>
</linearGradient>
<clipPath id="clip0_130_783">
<rect width="300" height="207" fill="white"/>
</clipPath>
</defs>
</svg>
